<?xml version="1.0" standalone="no"?>
<!DOCTYPE svg PUBLIC "-//W3C//DTD SVG 20010904//EN"
 "http://www.w3.org/TR/2001/REC-SVG-20010904/DTD/svg10.dtd">
<svg version="1.0" xmlns="http://www.w3.org/2000/svg"
 width="128.000000pt" height="128.000000pt" viewBox="0 0 128.000000 128.000000"
 preserveAspectRatio="xMidYMid meet">
<metadata>
Created by potrace 1.16, written by Peter Selinger 2001-2019
</metadata>
<g transform="translate(0.000000,128.000000) scale(0.100000,-0.100000)"
fill="#000000" stroke="none">
<path d="M95 1266 c-41 -18 -83 -69 -90 -109 -3 -18 -5 -262 -3 -544 3 -499 4
-512 24 -539 11 -15 33 -37 48 -48 27 -21 38 -21 566 -21 528 0 539 0 566 21
15 11 37 33 48 48 21 27 21 40 24 551 3 583 4 569 -64 621 l-37 29 -526 2
c-422 2 -532 0 -556 -11z m644 -196 c171 -20 275 -77 300 -165 6 -22 11 -111
11 -198 0 -153 1 -158 26 -197 l27 -40 -28 -40 c-43 -62 -48 -64 -94 -41 l-40
21 -46 -32 c-46 -33 -47 -33 -43 -85 l3 -53 -44 -15 c-66 -22 -77 -20 -98 25
-18 39 -19 39 -73 39 -54 0 -55 0 -73 -39 -21 -45 -32 -47 -97 -24 l-45 16 3
52 c4 51 3 51 -43 84 l-46 32 -40 -21 c-46 -23 -51 -21 -94 41 l-28 40 27 40
c25 39 26 44 26 197 0 87 5 176 11 198 24 85 131 146 287 165 97 11 118 11
211 0z"/>
<path d="M400 702 c-44 -35 -20 -102 35 -102 51 0 74 75 33 104 -29 20 -41 20
-68 -2z"/>
<path d="M812 704 c-41 -28 -18 -104 32 -104 36 0 56 20 56 55 0 33 -27 65
-55 65 -6 0 -21 -7 -33 -16z"/>
</g>
</svg>
